<?xml version="1.0" encoding="UTF-8" standalone="no"?>
<!-- Created with Inkscape (http://www.inkscape.org/) -->

<svg
   width="512"
   height="512"
   viewBox="0 0 135.46667 135.46667"
   version="1.1"
   id="svg5"
   inkscape:version="1.1 (c68e22c387, 2021-05-23)"
   sodipodi:docname="cheese.svg"
   xmlns:inkscape="http://www.inkscape.org/namespaces/inkscape"
   xmlns:sodipodi="http://sodipodi.sourceforge.net/DTD/sodipodi-0.dtd"
   xmlns="http://www.w3.org/2000/svg"
   xmlns:svg="http://www.w3.org/2000/svg">
  <sodipodi:namedview
     id="namedview7"
     pagecolor="#ffffff"
     bordercolor="#666666"
     borderopacity="1.0"
     inkscape:pageshadow="2"
     inkscape:pageopacity="0.0"
     inkscape:pagecheckerboard="0"
     inkscape:document-units="px"
     showgrid="false"
     inkscape:zoom="2.298097"
     inkscape:cx="244.11502"
     inkscape:cy="140.3335"
     inkscape:window-width="1920"
     inkscape:window-height="1017"
     inkscape:window-x="-8"
     inkscape:window-y="-8"
     inkscape:window-maximized="1"
     inkscape:current-layer="layer1" />
  <defs
     id="defs2" />
  <g
     inkscape:label="Warstwa 1"
     inkscape:groupmode="layer"
     id="layer1">
    <path
       style="fill:#000000;stroke-width:0.263709"
       d="M 0.32713015,86.694003 0.39666973,49.810114 1.6632938,46.777455 C 8.5513306,30.285523 22.144967,18.244188 38.831311,11.748248 c 1.985321,-0.600084 3.548745,-0.904121 6.161355,0.242078 l 43.608615,18.905068 46.672399,20.233269 0.005,10.824455 0.005,10.824452 -1.73738,0.297599 c -5.97926,1.024206 -10.14912,6.777933 -9.14796,12.622698 0.79629,4.648688 4.49928,8.351671 9.14796,9.147957 l 1.73738,0.297599 v 8.775677 8.77569 l -0.59335,0.12129 c -0.32633,0.0667 -30.20131,2.44646 -66.388858,5.28834 -36.187538,2.84189 -66.3014958,5.23601 -66.9199036,5.32026 L 0.25716798,123.5779 Z M 23.471256,109.93071 c 5.148928,-0.36801 9.739646,-0.729 10.201596,-0.80219 l 0.839913,-0.13308 -0.917551,-1.9321 c -1.788632,-3.76635 -1.773418,-7.721717 0.04397,-11.432877 4.716995,-9.632228 18.342125,-8.566028 21.759347,1.702722 0.941797,2.830095 0.694107,7.253175 -0.534753,9.549315 -0.271123,0.5066 -0.223285,0.54814 0.631164,0.54814 0.952203,0 62.273548,-4.59665 65.216668,-4.88864 l 1.64566,-0.16326 -1.2501,-0.99311 c -3.94726,-3.135819 -6.44363,-6.928901 -7.73666,-11.755379 -0.79489,-2.967021 -0.79341,-8.330227 0.003,-11.339508 1.40407,-5.304687 4.67142,-10.046576 9.02831,-13.102765 1.52065,-1.066681 1.54265,-1.100372 1.54265,-2.362452 V 61.545188 H 96.926054 69.907525 l 0.383867,1.087994 c 0.822358,2.33081 0.336506,4.650051 -1.372274,6.550624 -3.531924,3.928351 -10.303327,3.005135 -12.506602,-1.705153 -0.599627,-1.281927 -0.659671,-3.734236 -0.122883,-5.018952 l 0.38211,-0.914513 H 34.138034 11.604327 v 24.681585 24.681597 l 1.25262,-0.15428 c 0.688941,-0.0848 5.46538,-0.45537 10.614309,-0.82338 z M 102.71597,99.344882 c -1.87081,-0.986267 -3.021079,-2.777356 -3.021079,-4.704149 0,-5.041013 6.819569,-7.056493 9.511869,-2.811173 1.27992,2.018216 0.93154,5.182229 -0.73671,6.69083 -1.35128,1.221975 -4.22031,1.63308 -5.75408,0.824492 z M 75.346882,93.443564 c -5.580523,-0.938241 -9.515052,-6.206843 -8.649389,-11.582121 0.912654,-5.667062 6.532959,-9.512754 12.425676,-8.502267 5.567592,0.954737 9.177553,5.231006 8.908867,10.553218 -0.248442,4.921276 -3.786971,8.700945 -8.918073,9.525813 -1.902438,0.305834 -1.979246,0.305941 -3.767081,0.0054 z M 29.779305,84.48444 c -4.246647,-0.716122 -6.816676,-4.588675 -5.667872,-8.540425 1.002811,-3.449547 4.540251,-5.476036 8.480406,-4.858159 2.514154,0.394258 4.340484,1.712463 5.311693,3.833859 2.39421,5.229644 -2.144492,10.573098 -8.124227,9.564725 z M 103.63895,49.969453 c -0.21755,-0.1211 -4.696903,-2.089729 -9.954092,-4.374728 l -9.558522,-4.15454 -1.089177,0.984003 c -2.367014,2.138457 -6.13848,3.28927 -10.779643,3.28927 -7.188541,0 -12.394347,-2.87705 -12.394347,-6.849879 0,-1.883128 1.291411,-3.527926 3.881555,-4.943719 L 65.12104,33.167555 53.238403,27.995627 41.355769,22.823702 39.488937,23.61811 c -8.842861,3.762974 -17.042383,10.624818 -22.349886,18.703703 -1.319062,2.007829 -4.216177,7.319073 -4.216177,7.72947 0,0.08492 20.50012,0.150788 45.55582,0.146376 25.055701,-0.0044 45.377826,-0.107103 45.160256,-0.228206 z M 33.492218,41.477434 c -0.652682,-0.127465 -1.918224,-0.591577 -2.812318,-1.031363 -7.450886,-3.664929 -2.172968,-10.505216 7.666698,-9.936192 3.789079,0.219122 5.824684,0.930009 7.816917,2.729869 2.489686,2.249283 1.632865,5.460562 -1.912464,7.167719 -2.631805,1.267275 -7.347255,1.736227 -10.758833,1.069967 z"
       id="path132214"
       sodipodi:nodetypes="ccsccccccsssccccssccsscscsssscsscsscccssssccccccsssssscssssccssssssscsssscccssscsssssss" />
  </g>
</svg>
