<?xml version="1.0" encoding="UTF-8" standalone="no"?>
<!-- Created with Inkscape (http://www.inkscape.org/) -->

<svg
   width="512"
   height="512"
   viewBox="0 0 135.46667 135.46667"
   version="1.1"
   id="svg5"
   xmlns="http://www.w3.org/2000/svg"
   xmlns:svg="http://www.w3.org/2000/svg">
  <defs
     id="defs2" />
  <g
     id="layer1">
    <path
       style="fill:#000000;stroke-width:0.703066"
       d="M 67.895595,114.69865 C 56.290881,112.33375 45.0647,105.88873 36.762038,96.824665 L 32.240774,91.888781 20.20685,100.93059 c -8.542039,6.41816 -12.5935105,9.04183 -13.962401,9.04183 -2.1696875,0 -4.4197202,-2.04865 -4.9819982,-4.53607 -0.232216,-1.02728 1.6759696,-8.239121 5.0151028,-18.954236 L 11.667486,69.186083 6.2145032,51.682815 C 1.2876254,35.868272 0.84043774,33.974864 1.5794841,32.057972 c 0.934269,-2.423242 3.9743843,-4.074071 6.1417036,-3.33504 0.808675,0.27575 6.6787473,4.430712 13.0446003,9.233255 l 11.574277,8.731894 3.45417,-4.036231 c 7.068785,-8.259945 17.542393,-14.862113 28.551256,-17.997631 3.997051,-1.138432 7.570421,-1.561055 13.565991,-1.60445 10.284895,-0.07446 17.662398,1.752205 27.177028,6.728953 30.23928,15.817054 38.65507,41.975582 20.34146,63.226817 -7.69732,8.932011 -21.22824,17.502321 -32.595896,20.645831 -7.1791,1.98525 -18.08785,2.44335 -24.938479,1.04728 z m 19.394394,-11.6022 C 101.02856,100.27237 116.5358,89.328137 121.98992,78.606961 124.80245,73.078349 124.8752,66.262494 122.18449,60.376295 118.74523,52.852584 110.29148,45.292932 98.983177,39.628802 89.225691,34.741448 81.560601,33.391294 72.039246,34.882813 58.85998,36.947339 48.994708,43.260761 39.824142,55.499335 34.877551,62.1008 34.210329,62.075886 24.591294,54.93049 c -4.063198,-3.018299 -7.38763,-5.245035 -7.38763,-4.948303 0,0.296727 1.28847,4.733835 2.863258,9.860236 l 2.86326,9.320725 -2.926615,9.526967 c -1.609637,5.239838 -2.808929,9.653402 -2.665096,9.80793 0.143846,0.154543 3.279973,-1.997795 6.969197,-4.782954 3.689221,-2.785159 7.284896,-5.260751 7.990387,-5.501316 2.450329,-0.835533 4.519789,0.454755 7.578178,4.724907 11.727894,16.374596 29.356929,23.869508 47.413756,20.157768 z"
       id="path134391" />
    <circle
       style="fill:#000000;fill-rule:evenodd;stroke-width:0.264583"
       id="path134365"
       cx="96.38974"
       cy="62.523079"
       r="7.4897437" />
  </g>
</svg>
