<?xml version="1.0" encoding="UTF-8" standalone="no"?>
<!-- Created with Inkscape (http://www.inkscape.org/) -->

<svg
   width="512"
   height="512"
   viewBox="0 0 135.46667 135.46667"
   version="1.1"
   id="svg5"
   xmlns="http://www.w3.org/2000/svg"
   xmlns:svg="http://www.w3.org/2000/svg">
  <defs
     id="defs2" />
  <g
     id="layer1">
    <path
       style="fill:#000000;stroke-width:0.521144"
       d="m 18.206402,132.88191 c -3.86663,-1.67678 -5.862255,-4.68449 -5.923592,-8.92777 l -0.03974,-2.74955 H 9.9855383 c -7.5403385,0 -11.3656138,-8.76325 -6.8994093,-15.80574 3.0761837,-4.85063 10.257961,-6.565157 14.58723,-3.48245 l 1.747672,1.24446 6.462793,-6.662652 c 4.761388,-4.90863 6.369201,-6.889534 6.107281,-7.524487 -1.921464,-4.658116 -2.359718,-12.630347 -0.985794,-17.932494 0.448963,-1.7326 1.972317,-5.453822 3.385234,-8.269387 2.966734,-5.911908 4.363687,-10.680751 5.171583,-17.654448 C 42.083845,23.350094 50.826626,5.9623127 61.352656,1.7800426 65.385654,0.17762295 75.595917,0.068124 80.74011,1.572124 c 11.707435,3.4228819 22.54445,10.299587 32.60332,20.688691 12.48027,12.889995 19.74465,26.999995 20.87428,40.545258 1.00102,12.002946 -4.69155,21.720908 -14.5272,24.799777 -1.21531,0.380429 -4.50205,1.640868 -7.30389,2.800968 -6.45604,2.673127 -12.654803,4.334428 -22.517326,6.034763 -7.299833,1.258526 -12.789449,2.871718 -23.200106,6.817639 -3.480823,1.31932 -4.564503,1.48022 -9.90176,1.4701 -5.206706,-0.01 -6.471888,-0.193 -9.641189,-1.39551 l -3.648016,-1.38416 -6.601346,6.58021 -6.601349,6.58022 0.98072,1.35353 c 3.035375,4.18927 1.919996,10.97068 -2.388542,14.52214 -3.212438,2.64797 -7.265428,3.36879 -10.661308,1.89616 z M 116.51927,79.77869 c 6.23769,-1.852395 9.10426,-5.891938 9.46363,-13.335988 C 127.0034,45.304071 102.05158,15.634544 78.204032,9.6301594 63.953071,6.04202 55.466133,12.283543 56.409989,25.658087 c 0.811756,11.50273 7.75398,24.302577 19.613447,36.162662 14.001247,14.001969 29.970604,21.083598 40.495834,17.957941 z M 91.804282,52.636251 c -3.153152,-1.571282 -7.313627,-5.915102 -8.902066,-9.294365 -0.636752,-1.354634 -1.119811,-3.413681 -1.119811,-4.773219 0,-1.971414 0.279417,-2.670339 1.592494,-3.983418 1.460118,-1.460115 1.803732,-1.567479 4.133521,-1.291551 7.157119,0.847657 14.57966,8.795136 14.59355,15.625686 0.01,4.995909 -4.479229,6.616328 -10.297688,3.716867 z"
       id="path547" />
  </g>
</svg>
